%FSLAX35Y35*%
%MOIN*%
G04 2=Kupferunten/CopperbottomL2(X.Bot)*
%ADD10C,0.00591*%
%ADD11C,0.00472*%
%ADD12C,0.00512*%
%ADD13C,0.00665*%
%ADD14C,0.00768*%
%ADD15C,0.00787*%
%ADD16C,0.01024*%
%ADD17C,0.01181*%
%ADD18C,0.01575*%
%ADD19C,0.02000*%
%ADD20C,0.02087*%
%ADD21C,0.02362*%
%ADD22C,0.11811*%
%AMR_23*21,1,0.00787,0.00787,0,0,0.000*%
%ADD23R_23*%
%AMR_24*21,1,0.01575,0.01575,0,0,0.000*%
%ADD24R_24*%
%AMR_25*21,1,0.02362,0.02362,0,0,0.000*%
%ADD25R_25*%
%AMR_26*21,1,0.02887,0.02887,0,0,0.000*%
%ADD26R_26*%
%AMR_27*21,1,0.07874,0.05000,0,0,0.000*%
%ADD27R_27*%
%AMR_28*21,1,0.07874,0.05000,0,0,90.000*%
%ADD28R_28*%
%AMR_29*21,1,0.07874,0.05000,0,0,270.000*%
%ADD29R_29*%
%AMOCT_30*4,1,8,0.023622,0.011811,0.011811,0.023622,-0.011811,0.023622,-0.023622,0.011811,-0.023622,-0.011811,-0.011811,-0.023622,0.011811,-0.023622,0.023622,-0.011811,0.023622,0.011811,90.000*%
%ADD30OCT_30*%
%AMOCT_31*4,1,8,0.041339,0.020669,0.020669,0.041339,-0.020669,0.041339,-0.041339,0.020669,-0.041339,-0.020669,-0.020669,-0.041339,0.020669,-0.041339,0.041339,-0.020669,0.041339,0.020669,270.000*%
%ADD31OCT_31*%
%AMOCT_32*4,1,8,0.059055,0.014764,0.044291,0.029528,-0.044291,0.029528,-0.059055,0.014764,-0.059055,-0.014764,-0.044291,-0.029528,0.044291,-0.029528,0.059055,-0.014764,0.059055,0.014764,90.000*%
%ADD32OCT_32*%
%ADD33O,0.07087X0.02559*%
%AMRR_34*21,1,0.02559,0.06575,0,0,90.000*21,1,0.02047,0.07087,0,0,90.000*1,1,0.00512,-0.03287,0.01024*1,1,0.00512,0.03287,-0.01024*1,1,0.00512,0.03287,0.01024*1,1,0.00512,-0.03287,-0.01024*%
%ADD34RR_34*%
G54D17*
X1771Y4133D02*
X7256Y4133D01*
X88343Y4133D02*
X170403Y4133D01*
X1771Y6496D02*
X7256Y6496D01*
X88343Y6496D02*
X170403Y6496D01*
X1771Y8858D02*
X7256Y8858D01*
X88343Y8858D02*
X170403Y8858D01*
X1771Y11220D02*
X7256Y11220D01*
X88343Y11220D02*
X170403Y11220D01*
X1771Y13582D02*
X7256Y13582D01*
X88343Y13582D02*
X170403Y13582D01*
X1771Y15944D02*
X8644Y15944D01*
X16955Y15944D02*
X18644Y15944D01*
X26955Y15944D02*
X28644Y15944D01*
X36955Y15944D02*
X38644Y15944D01*
X46955Y15944D02*
X48644Y15944D01*
X56955Y15944D02*
X58644Y15944D01*
X66955Y15944D02*
X68644Y15944D01*
X76955Y15944D02*
X78644Y15944D01*
X86955Y15944D02*
X170403Y15944D01*
X1771Y18307D02*
X41122Y18307D01*
X49477Y18307D02*
X170403Y18307D01*
X1771Y20669D02*
X36733Y20669D01*
X50390Y20669D02*
X85834Y20669D01*
X131623Y20669D02*
X151917Y20669D01*
X161183Y20669D02*
X170403Y20669D01*
X1771Y23031D02*
X34371Y23031D01*
X68885Y23031D02*
X81614Y23031D01*
X133985Y23031D02*
X149825Y23031D01*
X163274Y23031D02*
X170403Y23031D01*
X1771Y25393D02*
X32008Y25393D01*
X69440Y25393D02*
X79252Y25393D01*
X136347Y25393D02*
X149825Y25393D01*
X163274Y25393D02*
X170403Y25393D01*
X1771Y27755D02*
X29646Y27755D01*
X96015Y27755D02*
X117970Y27755D01*
X127630Y27755D02*
X128042Y27755D01*
X138709Y27755D02*
X149825Y27755D01*
X163274Y27755D02*
X170403Y27755D01*
X1771Y30118D02*
X29209Y30118D01*
X67669Y30118D02*
X68653Y30118D01*
X85196Y30118D02*
X86087Y30118D01*
X95762Y30118D02*
X107909Y30118D01*
X129524Y30118D02*
X130404Y30118D01*
X141072Y30118D02*
X150903Y30118D01*
X162197Y30118D02*
X170403Y30118D01*
X1771Y32480D02*
X29209Y32480D01*
X69334Y32480D02*
X69842Y32480D01*
X82833Y32480D02*
X85834Y32480D01*
X96015Y32480D02*
X105547Y32480D01*
X129524Y32480D02*
X132766Y32480D01*
X143434Y32480D02*
X153265Y32480D01*
X159834Y32480D02*
X170403Y32480D01*
X1771Y34842D02*
X29209Y34842D01*
X69192Y34842D02*
X85834Y34842D01*
X129524Y34842D02*
X135128Y34842D01*
X145796Y34842D02*
X151523Y34842D01*
X161576Y34842D02*
X170403Y34842D01*
X1771Y37204D02*
X29209Y37204D01*
X50390Y37204D02*
X60131Y37204D01*
X66482Y37204D02*
X85834Y37204D01*
X110978Y37204D02*
X117350Y37204D01*
X128250Y37204D02*
X137490Y37204D01*
X163274Y37204D02*
X170403Y37204D01*
X1771Y39566D02*
X29209Y39566D01*
X50390Y39566D02*
X85834Y39566D01*
X108616Y39566D02*
X139853Y39566D01*
X163274Y39566D02*
X170403Y39566D01*
X1771Y41929D02*
X29209Y41929D01*
X49851Y41929D02*
X85834Y41929D01*
X96015Y41929D02*
X117576Y41929D01*
X128023Y41929D02*
X137094Y41929D01*
X163274Y41929D02*
X170403Y41929D01*
X1771Y44291D02*
X29209Y44291D01*
X49071Y44291D02*
X116075Y44291D01*
X129524Y44291D02*
X134732Y44291D01*
X144618Y44291D02*
X151297Y44291D01*
X161803Y44291D02*
X170403Y44291D01*
X1771Y46653D02*
X29209Y46653D01*
X49071Y46653D02*
X116075Y46653D01*
X129524Y46653D02*
X134722Y46653D01*
X144627Y46653D02*
X170403Y46653D01*
X1771Y49015D02*
X29209Y49015D01*
X49344Y49015D02*
X116075Y49015D01*
X129524Y49015D02*
X134928Y49015D01*
X144421Y49015D02*
X151129Y49015D01*
X161970Y49015D02*
X170403Y49015D01*
X1771Y51377D02*
X29209Y51377D01*
X51706Y51377D02*
X117743Y51377D01*
X127856Y51377D02*
X137291Y51377D01*
X142059Y51377D02*
X149825Y51377D01*
X163274Y51377D02*
X170403Y51377D01*
X1771Y53740D02*
X5822Y53740D01*
X54069Y53740D02*
X149825Y53740D01*
X163274Y53740D02*
X170403Y53740D01*
X1771Y56102D02*
X5822Y56102D01*
X56431Y56102D02*
X149825Y56102D01*
X163274Y56102D02*
X170403Y56102D01*
X1771Y58464D02*
X5822Y58464D01*
X56571Y58464D02*
X135558Y58464D01*
X143791Y58464D02*
X151690Y58464D01*
X161409Y58464D02*
X170403Y58464D01*
X1771Y60826D02*
X6521Y60826D01*
X56571Y60826D02*
X59983Y60826D01*
X65617Y60826D02*
X69983Y60826D01*
X75617Y60826D02*
X79983Y60826D01*
X85617Y60826D02*
X134722Y60826D01*
X144627Y60826D02*
X170403Y60826D01*
X1771Y63188D02*
X7620Y63188D01*
X87979Y63188D02*
X134722Y63188D01*
X144627Y63188D02*
X170403Y63188D01*
X1771Y65551D02*
X7256Y65551D01*
X88343Y65551D02*
X136464Y65551D01*
X142886Y65551D02*
X170403Y65551D01*
X1771Y67913D02*
X7256Y67913D01*
X88343Y67913D02*
X170403Y67913D01*
X1771Y70275D02*
X7256Y70275D01*
X88343Y70275D02*
X170403Y70275D01*
X1771Y72637D02*
X7256Y72637D01*
X88343Y72637D02*
X170403Y72637D01*
X1771Y75000D02*
X7699Y75000D01*
X87900Y75000D02*
X170403Y75000D01*
X4133Y1771D02*
X4133Y76033D01*
X6496Y1771D02*
X6496Y52308D01*
X6496Y60801D02*
X6496Y76033D01*
X8858Y1771D02*
X8858Y1951D01*
X8858Y16158D02*
X8858Y51464D01*
X8858Y61645D02*
X8858Y61951D01*
X11220Y17551D02*
X11220Y51464D01*
X13582Y17551D02*
X13582Y51464D01*
X15944Y16955D02*
X15944Y51464D01*
X18307Y15607D02*
X18307Y52411D01*
X20669Y17551D02*
X20669Y51464D01*
X23031Y17551D02*
X23031Y51464D01*
X25393Y17507D02*
X25393Y51464D01*
X27755Y15144D02*
X27755Y51464D01*
X30118Y17418D02*
X30118Y27284D01*
X32480Y17551D02*
X32480Y24922D01*
X34842Y17551D02*
X34842Y22559D01*
X37204Y15696D02*
X37204Y20639D01*
X39566Y16867D02*
X39566Y20639D01*
X41929Y17551D02*
X41929Y17702D01*
X44291Y17551D02*
X44291Y17702D01*
X46653Y16247D02*
X46653Y17702D01*
X49015Y16316D02*
X49015Y17845D01*
X51377Y17551D02*
X51377Y22349D01*
X51377Y37191D02*
X51377Y51048D01*
X53740Y17551D02*
X53740Y22349D01*
X53740Y37191D02*
X53740Y53411D01*
X56102Y16798D02*
X56102Y22349D01*
X56102Y37191D02*
X56102Y55773D01*
X58464Y15764D02*
X58464Y22296D01*
X58464Y37191D02*
X58464Y62345D01*
X60826Y17551D02*
X60826Y22069D01*
X60826Y37304D02*
X60826Y60559D01*
X63188Y17551D02*
X63188Y22069D01*
X63188Y37329D02*
X63188Y60559D01*
X65551Y17349D02*
X65551Y22069D01*
X65551Y37329D02*
X65551Y60760D01*
X67913Y15213D02*
X67913Y22069D01*
X67913Y29810D02*
X67913Y30321D01*
X67913Y36518D02*
X67913Y62896D01*
X70275Y17551D02*
X70275Y26504D01*
X70275Y32855D02*
X70275Y60559D01*
X72637Y17551D02*
X72637Y25770D01*
X72637Y33589D02*
X72637Y60559D01*
X75000Y17551D02*
X75000Y25770D01*
X75000Y33589D02*
X75000Y60559D01*
X77362Y15538D02*
X77362Y25808D01*
X77362Y33551D02*
X77362Y62571D01*
X79724Y17024D02*
X79724Y24921D01*
X79724Y33451D02*
X79724Y61085D01*
X82086Y17551D02*
X82086Y22559D01*
X82086Y33227D02*
X82086Y60559D01*
X84448Y17551D02*
X84448Y21083D01*
X84448Y30865D02*
X84448Y60559D01*
X86811Y1771D02*
X86811Y2020D01*
X86811Y16089D02*
X86811Y18868D01*
X86811Y30841D02*
X86811Y31018D01*
X86811Y42991D02*
X86811Y62020D01*
X89173Y1771D02*
X89173Y18327D01*
X89173Y43532D02*
X89173Y76033D01*
X91535Y1771D02*
X91535Y18327D01*
X91535Y43532D02*
X91535Y76033D01*
X93897Y1771D02*
X93897Y18327D01*
X93897Y43532D02*
X93897Y76033D01*
X96259Y1771D02*
X96259Y18408D01*
X96259Y25951D02*
X96259Y33589D01*
X96259Y40770D02*
X96259Y76033D01*
X98622Y1771D02*
X98622Y18408D01*
X98622Y25951D02*
X98622Y33589D01*
X98622Y40770D02*
X98622Y76033D01*
X100984Y1771D02*
X100984Y18408D01*
X100984Y25951D02*
X100984Y33589D01*
X100984Y40770D02*
X100984Y76033D01*
X103346Y1771D02*
X103346Y18408D01*
X103346Y25951D02*
X103346Y33589D01*
X103346Y40770D02*
X103346Y76033D01*
X105708Y1771D02*
X105708Y18408D01*
X105708Y25951D02*
X105708Y32318D01*
X105708Y40770D02*
X105708Y76033D01*
X108070Y1771D02*
X108070Y18408D01*
X108070Y25951D02*
X108070Y29956D01*
X108070Y40112D02*
X108070Y76033D01*
X110433Y1771D02*
X110433Y18408D01*
X110433Y25951D02*
X110433Y28589D01*
X110433Y37750D02*
X110433Y76033D01*
X112795Y1771D02*
X112795Y18408D01*
X112795Y25951D02*
X112795Y28589D01*
X112795Y35770D02*
X112795Y76033D01*
X115157Y1771D02*
X115157Y18408D01*
X115157Y25951D02*
X115157Y28589D01*
X115157Y35770D02*
X115157Y76033D01*
X117519Y1771D02*
X117519Y18408D01*
X117519Y25951D02*
X117519Y28206D01*
X117519Y37374D02*
X117519Y41986D01*
X117519Y51153D02*
X117519Y76033D01*
X119881Y1771D02*
X119881Y18408D01*
X119881Y25951D02*
X119881Y26065D01*
X119881Y39514D02*
X119881Y39845D01*
X119881Y53294D02*
X119881Y76033D01*
X122244Y1771D02*
X122244Y18408D01*
X122244Y25951D02*
X122244Y26065D01*
X122244Y39514D02*
X122244Y39845D01*
X122244Y53294D02*
X122244Y76033D01*
X124606Y1771D02*
X124606Y18408D01*
X124606Y25951D02*
X124606Y26065D01*
X124606Y39514D02*
X124606Y39845D01*
X124606Y53294D02*
X124606Y76033D01*
X126968Y1771D02*
X126968Y18408D01*
X126968Y26682D02*
X126968Y27094D01*
X126968Y38486D02*
X126968Y40873D01*
X126968Y52265D02*
X126968Y76033D01*
X129330Y1771D02*
X129330Y18408D01*
X129330Y29044D02*
X129330Y29456D01*
X129330Y36124D02*
X129330Y43236D01*
X129330Y49903D02*
X129330Y76033D01*
X131692Y1771D02*
X131692Y20738D01*
X131692Y31406D02*
X131692Y76033D01*
X134055Y1771D02*
X134055Y23101D01*
X134055Y33768D02*
X134055Y76033D01*
X136417Y1771D02*
X136417Y25463D01*
X136417Y36131D02*
X136417Y42606D01*
X136417Y50504D02*
X136417Y57606D01*
X136417Y65504D02*
X136417Y76033D01*
X138779Y1771D02*
X138779Y27825D01*
X138779Y38493D02*
X138779Y41602D01*
X138779Y51507D02*
X138779Y56602D01*
X138779Y66507D02*
X138779Y76033D01*
X141141Y1771D02*
X141141Y30187D01*
X141141Y40855D02*
X141141Y41602D01*
X141141Y51507D02*
X141141Y56602D01*
X141141Y66507D02*
X141141Y76033D01*
X143503Y1771D02*
X143503Y32549D01*
X143503Y49933D02*
X143503Y58176D01*
X143503Y64933D02*
X143503Y76033D01*
X145866Y1771D02*
X145866Y34912D01*
X145866Y43451D02*
X145866Y76033D01*
X148228Y1771D02*
X148228Y35908D01*
X148228Y43451D02*
X148228Y76033D01*
X150590Y1771D02*
X150590Y21995D01*
X150590Y29805D02*
X150590Y35775D01*
X150590Y43584D02*
X150590Y49554D01*
X150590Y57364D02*
X150590Y76033D01*
X152952Y1771D02*
X152952Y19633D01*
X152952Y32167D02*
X152952Y33413D01*
X152952Y45947D02*
X152952Y47192D01*
X152952Y59726D02*
X152952Y76033D01*
X155314Y1771D02*
X155314Y19176D01*
X155314Y32624D02*
X155314Y32955D01*
X155314Y46404D02*
X155314Y46735D01*
X155314Y60184D02*
X155314Y76033D01*
X157677Y1771D02*
X157677Y19176D01*
X157677Y32624D02*
X157677Y32955D01*
X157677Y46404D02*
X157677Y46735D01*
X157677Y60184D02*
X157677Y76033D01*
X160039Y1771D02*
X160039Y19525D01*
X160039Y32275D02*
X160039Y33304D01*
X160039Y46055D02*
X160039Y47084D01*
X160039Y59834D02*
X160039Y76033D01*
X162401Y1771D02*
X162401Y21887D01*
X162401Y29913D02*
X162401Y35667D01*
X162401Y43693D02*
X162401Y49446D01*
X162401Y57472D02*
X162401Y76033D01*
X164763Y1771D02*
X164763Y76033D01*
X167126Y1771D02*
X167126Y76033D01*
X169488Y1771D02*
X169488Y76033D01*
X7256Y3552D02*
X7256Y14557D01*
X10250Y17551D01*
X15349Y17551D01*
X17800Y15100D01*
X20250Y17551D01*
X25349Y17551D01*
X27800Y15100D01*
X30250Y17551D01*
X35349Y17551D01*
X37800Y15100D01*
X40250Y17551D01*
X45349Y17551D01*
X47800Y15100D01*
X50250Y17551D01*
X55349Y17551D01*
X57800Y15100D01*
X60250Y17551D01*
X65349Y17551D01*
X67800Y15100D01*
X70250Y17551D01*
X75349Y17551D01*
X77800Y15100D01*
X80250Y17551D01*
X85349Y17551D01*
X88343Y14557D01*
X88343Y3552D01*
X86562Y1771D01*
X170403Y1771D01*
X170403Y76033D01*
X86867Y76033D01*
X88343Y74557D01*
X88343Y63552D01*
X85349Y60559D01*
X80250Y60559D01*
X77800Y63009D01*
X75349Y60559D01*
X70250Y60559D01*
X67800Y63009D01*
X65349Y60559D01*
X60250Y60559D01*
X57800Y63009D01*
X56571Y61781D01*
X56571Y56242D01*
X54362Y54033D01*
X54362Y54033D01*
X49071Y48742D01*
X49071Y42709D01*
X50390Y41390D01*
X50390Y37191D01*
X60042Y37191D01*
X61001Y37329D01*
X65613Y37329D01*
X66673Y37177D01*
X67687Y36714D01*
X68530Y35984D01*
X69132Y35046D01*
X69446Y33977D01*
X69446Y32863D01*
X69132Y31793D01*
X68530Y30856D01*
X67687Y30126D01*
X66995Y29810D01*
X67923Y29810D01*
X68671Y29061D01*
X68653Y29122D01*
X68653Y30237D01*
X68967Y31306D01*
X69570Y32244D01*
X70412Y32974D01*
X71426Y33437D01*
X72487Y33589D01*
X77099Y33589D01*
X78057Y33451D01*
X81862Y33451D01*
X84071Y31242D01*
X84071Y31242D01*
X85834Y29479D01*
X85834Y29865D01*
X86899Y30930D01*
X85834Y31995D01*
X85834Y42015D01*
X87352Y43532D01*
X94498Y43532D01*
X96015Y42015D01*
X96015Y40770D01*
X107412Y40770D01*
X109515Y38667D01*
X109515Y38667D01*
X112412Y35770D01*
X116075Y35770D01*
X116075Y35930D01*
X119660Y39514D01*
X125940Y39514D01*
X129524Y35930D01*
X129524Y29650D01*
X125940Y26065D01*
X119660Y26065D01*
X117136Y28589D01*
X109437Y28589D01*
X107334Y30692D01*
X107334Y30692D01*
X104437Y33589D01*
X96015Y33589D01*
X96015Y31995D01*
X94950Y30930D01*
X96015Y29865D01*
X96015Y25951D01*
X126237Y25951D01*
X141528Y41242D01*
X141528Y41242D01*
X141888Y41602D01*
X137421Y41602D01*
X134722Y44300D01*
X134722Y48809D01*
X137421Y51507D01*
X141929Y51507D01*
X144627Y48809D01*
X144627Y44300D01*
X143778Y43451D01*
X150457Y43451D01*
X153410Y46404D01*
X159690Y46404D01*
X163274Y42820D01*
X163274Y36540D01*
X159690Y32955D01*
X153410Y32955D01*
X150457Y35908D01*
X146862Y35908D01*
X131571Y20617D01*
X131571Y20617D01*
X129362Y18408D01*
X94579Y18408D01*
X94498Y18327D01*
X87352Y18327D01*
X85834Y19845D01*
X85834Y21083D01*
X83562Y21083D01*
X81353Y23292D01*
X81353Y23292D01*
X78737Y25908D01*
X78057Y25908D01*
X77099Y25770D01*
X72487Y25770D01*
X71426Y25923D01*
X70412Y26386D01*
X69570Y27115D01*
X69440Y27317D01*
X69440Y23587D01*
X67923Y22069D01*
X58690Y22069D01*
X58411Y22349D01*
X50390Y22349D01*
X50390Y19220D01*
X48873Y17702D01*
X41727Y17702D01*
X40209Y19220D01*
X40209Y20639D01*
X36762Y20639D01*
X34659Y22742D01*
X34659Y22742D01*
X31312Y26089D01*
X31312Y26089D01*
X29209Y28192D01*
X29209Y51464D01*
X19490Y51464D01*
X18425Y52529D01*
X17360Y51464D01*
X7340Y51464D01*
X5822Y52982D01*
X5822Y60128D01*
X7340Y61645D01*
X9164Y61645D01*
X7256Y63552D01*
X7256Y74557D01*
X8733Y76033D01*
X1771Y76033D01*
X1771Y1771D01*
X9038Y1771D01*
X7256Y3552D01*
X153410Y19176D02*
X149825Y22760D01*
X149825Y29040D01*
X153410Y32624D01*
X159690Y32624D01*
X163274Y29040D01*
X163274Y22760D01*
X159690Y19176D01*
X153410Y19176D01*
X119660Y39845D02*
X116075Y43429D01*
X116075Y49709D01*
X119660Y53294D01*
X125940Y53294D01*
X129524Y49709D01*
X129524Y43429D01*
X125940Y39845D01*
X119660Y39845D01*
X153410Y46735D02*
X149825Y50319D01*
X149825Y56599D01*
X153410Y60184D01*
X159690Y60184D01*
X163274Y56599D01*
X163274Y50319D01*
X159690Y46735D01*
X153410Y46735D01*
X137421Y56602D02*
X134722Y59300D01*
X134722Y63809D01*
X137421Y66507D01*
X141929Y66507D01*
X144627Y63809D01*
X144627Y59300D01*
X141929Y56602D01*
X137421Y56602D01*
G54D19*
X22800Y69055D02*
X22800Y58255D01*
X24500Y56555D01*
X45300Y24230D02*
X38250Y24230D01*
X32800Y29680D01*
X32800Y69055D01*
X63307Y25939D02*
X47010Y25939D01*
X45300Y24230D01*
X91100Y37180D02*
X105925Y37180D01*
X91100Y37180D02*
X90925Y37005D01*
X105925Y37180D02*
X110925Y32180D01*
X122800Y32180D01*
X12800Y57005D02*
X12800Y69055D01*
X12800Y57005D02*
X12350Y56555D01*
G54D21*
X63307Y33420D02*
X48260Y33420D01*
X45300Y36380D01*
X45300Y50305D01*
X52800Y57805D01*
X52800Y69055D01*
X74793Y29680D02*
X80300Y29680D01*
X85125Y24855D01*
X90925Y24855D01*
X93600Y22180D01*
X127800Y22180D01*
X145300Y39680D01*
X156550Y39680D01*
G54D27*
X24500Y56555D03*
X12350Y56555D03*
G54D28*
X90925Y37005D03*
X90925Y24855D03*
G54D29*
X45300Y24230D03*
X45300Y36380D03*
G54D30*
X139675Y46555D03*
X139675Y61555D03*
G54D31*
X156550Y25900D03*
X156550Y53459D03*
X156550Y39680D03*
X122800Y46569D03*
X122800Y32790D03*
G54D32*
X32800Y9055D03*
X22800Y9055D03*
X12800Y9055D03*
X42800Y9055D03*
X52800Y9055D03*
X62800Y9055D03*
X72800Y9055D03*
X82800Y9055D03*
X32800Y69055D03*
X22800Y69055D03*
X12800Y69055D03*
X42800Y69055D03*
X52800Y69055D03*
X62800Y69055D03*
X72800Y69055D03*
X82800Y69055D03*
G54D33*
X63307Y33420D03*
X74793Y29680D03*
G54D34*
X63307Y25939D03*
G36*
X138887Y61555D02*
X140462Y61555D01*
X140462Y66555D01*
X138887Y66555D01*
X138887Y61555D01*
G37*
G36*
X138887Y56555D02*
X140462Y56555D01*
X140462Y61555D01*
X138887Y61555D01*
X138887Y56555D01*
G37*
G36*
X134675Y60767D02*
X139675Y60767D01*
X139675Y62342D01*
X134675Y62342D01*
X134675Y60767D01*
G37*
G36*
X139675Y60767D02*
X144675Y60767D01*
X144675Y62342D01*
X139675Y62342D01*
X139675Y60767D01*
G37*
G36*
X121619Y39798D02*
X123981Y39798D01*
X123981Y46569D01*
X121619Y46569D01*
X121619Y39798D01*
G37*
G36*
X121619Y46569D02*
X123981Y46569D01*
X123981Y53341D01*
X121619Y53341D01*
X121619Y46569D01*
G37*
G36*
X122800Y45388D02*
X129571Y45388D01*
X129571Y47750D01*
X122800Y47750D01*
X122800Y45388D01*
G37*
G36*
X116028Y45388D02*
X122800Y45388D01*
X122800Y47750D01*
X116028Y47750D01*
X116028Y45388D01*
G37*
G36*
X155369Y46687D02*
X157731Y46687D01*
X157731Y53459D01*
X155369Y53459D01*
X155369Y46687D01*
G37*
G36*
X155369Y53459D02*
X157731Y53459D01*
X157731Y60231D01*
X155369Y60231D01*
X155369Y53459D01*
G37*
G36*
X156550Y52278D02*
X163321Y52278D01*
X163321Y54640D01*
X156550Y54640D01*
X156550Y52278D01*
G37*
G36*
X149778Y52278D02*
X156550Y52278D01*
X156550Y54640D01*
X149778Y54640D01*
X149778Y52278D01*
G37*
M02*
